<svg xmlns="http://www.w3.org/2000/svg" width="1024" height="1024" viewBox="0 0 1024 1024">
<g>
<path d="M 485.77 885.25 C485.03,884.29 435.31,834.49 375.26,774.59 L 266.10 665.67 L 205.30 666.21 C171.86,666.50 115.30,666.46 79.61,666.12 L 14.73 665.50 L 257.43 423.50 C390.91,290.40 500.62,181.33 501.23,181.11 C502.02,180.83 502.14,188.52 501.67,208.61 C501.30,223.95 501.00,278.95 501.00,330.83 L 501.00 425.15 L 480.76 446.33 C469.62,457.97 450.61,477.63 438.51,490.01 C426.40,502.38 395.36,534.33 369.51,561.01 C292.41,640.59 289.00,644.08 278.20,654.75 L 267.82 665.00 L 280.66 665.04 C287.72,665.06 337.49,665.04 391.25,665.00 L 489.00 664.93 L 489.00 775.96 C489.00,844.87 488.64,887.00 488.06,887.00 C487.54,887.00 486.51,886.21 485.77,885.25 Z" fill="rgba(9,61,64,1)"/>
<path d="M 740.48 646.75 C703.47,609.16 671.88,576.93 628.97,533.00 C605.07,508.52 575.16,478.04 562.51,465.25 C549.85,452.46 535.79,438.08 531.26,433.29 L 523.02 424.59 L 522.76 304.80 C522.62,238.91 522.65,184.55 522.83,184.00 C523.48,182.07 525.15,183.05 530.88,188.75 C534.06,191.91 598.28,255.68 673.58,330.46 C748.89,405.24 832.78,488.60 860.00,515.70 C887.22,542.81 932.37,587.71 960.33,615.49 L 1011.17 666.00 L 885.30 666.00 L 759.43 666.00 L 740.48 646.75 Z" fill="rgba(14,185,189,1)"/>
</g>
</svg>